<svg version="1.1" xmlns="http://www.w3.org/2000/svg" xmlns:xlink="http://www.w3.org/1999/xlink" x="0px" y="0px" viewBox="0 0 750 500" style="enable-background:new 0 0 750 500;" xml:space="preserve">
  <g>
    <path style="fill:#748EA7;" d="M606,211c3-5,1-15,4-20c3.987-7.177,12.422-13.084,19.733-19.745
					c-0.179-0.044-0.333-0.055-0.443-0.009c-0.592,0.249-1.835,1.898-2.475,2.378c-1.667,1.247-3.5,2.255-5.287,3.332
					c-1.385,0.835-2.796,1.218-4.233,1.894c-1.543,0.727-2.773,1.689-4.418,2.15c-1.542,0.432-3.198,0.549-4.698,1.142
					c-0.564,0.223-0.901,0.436-1.361,0.774c-0.209,0.468-0.511,0.868-0.904,1.201c-0.534,0.268-1.079,0.512-1.634,0.732
					c-1.399,1.013-1.105,1.676-3.057,1.779c-1.279,0.068-2.585-0.02-3.868-0.015c-0.74,0.003-1.61,0.114-2.341,0.018
					c-0.725-0.095-1.194-0.514-1.703-0.62c-0.245-0.051-1.348-0.162-1.376-0.172c-0.365-0.134-1.97-0.717-2.288-0.679
					c-0.311,0.037-1.329,1.164-1.508,1.269c-0.936,0.269-1.86,0.574-2.772,0.916c-0.908,0.54-1.814,1.083-2.718,1.631
					c-2.601,1.257-5.637,2.185-8.33,3.248c-4.876,1.924-9.752,3.311-14.688,5.036c-2.367,0.827-4.85,1.419-7.128,2.477
					c-1.821,0.846-3.502,1.793-5.436,2.4c-2.147,0.674-4.371,0.813-6.528,1.448c-14.188,4.178-28.522,7.833-42.979,11.077
					c-0.545,1.009,2.665,3.474,3.237,3.952c5.771,4.823,14.255,7.211,21.255,9.404c11.054,3.463,21.837,6.946,32.414,11.72
					c3.957,1.786,7.889,3.633,11.831,5.454C580.412,234.763,594.701,225.123,606,211z" />
    <path style="fill:#8EABBD;" d="M815.677,293.452l-51.097-61.936c-2.81-0.042-5.145-0.375-7.899-0.989
					c-3.661-0.817-7.515-0.985-11.231-1.528c-4.991-0.73-9.999-1.299-15.005-1.916c-2.514-0.31-4.589-0.869-6.983-1.588
					c-1.237-0.371-2.723-0.426-3.841-1.101c-1.554-0.938-2.922-2.594-4.4-3.717c-2.243-1.703-4.438-3.399-6.968-4.685
					c-2.206-1.122-4.686-1.923-6.986-2.887c-2.824-1.184-5.349-2.789-8.086-4.08c-4.578-2.16-9.834-3.673-14.692-5.164
					c-4.123-1.266-9.402-1.941-12.988-4.283c-1.564-1.021-2.915-2.419-4.589-3.292c-2.455-1.28-5.649-2.24-7.698-4.247
					c-2.018-1.977-3.846-4.382-6-6.228c-1.981-1.698-4.802-2.644-6.719-4.407c-1.961-1.803-3.527-4.35-5.379-6.231
					c-0.655-0.665-3.963-3.565-5.385-3.918C622.422,177.916,613.987,183.823,610,191c-3,5-1,15-4,20
					c-11.299,14.123-25.588,23.763-39.701,34.192c4.639,2.143,9.295,4.251,14.03,6.175c9.986,4.058,20.52,7.06,30.886,9.988
					c7.389,2.088,14.564,4.707,21.881,7.013c6.525,2.056,12.985,3.059,19.695,4.254c9.025,1.607,17.703,4.651,26.665,6.546
					c10.064,2.127,20.281,3.286,30.358,5.3c10.689,2.136,21.527,4.906,31.863,8.38c14.063,4.726,27.143,11.716,42.31,11.479
					c3.655-0.057,7.533,0.419,11.153-0.134c4.224-0.645,8.42-2.278,12.598-3.23c1.904-0.434,4.478-0.928,6.244-1.85
					C816.303,297.901,815.736,296.045,815.677,293.452z" />
    <path style="fill:#FFFFFF;" d="M579.548,223c5.997,0.178,11.064,3.443,17.09,3.908c2.522,0.195,5.143-0.078,7.679-0.04
					c2.748,0.041,4.945-1.199,7.403-2.36c2.545-1.202,3.562-0.234,6.108,0.083c1.965,0.244,2.822-0.609,4.295,0.831
					c1.011,0.988,1.31,2.694,2.328,3.673c1.128,1.084,1.612,0.884,3.094,0.873c1.181-0.008,1.618,0.385,2.495,0.605
					c1.806,0.452,2.152,0.485,3.51,1.91c1.531,1.605,2.288,1.169,4.408,1.328c1.728,0.129,3.263,0.76,5.052,0.825
					c1.429-0.127,2.85-0.079,4.264,0.145c0.358,0.274,0.742,0.503,1.153,0.685c2.22-0.147,5.086-1.672,7.202-2.225
					c4.908-1.283,5.452,4.852,9.008,6.813c2.892,1.595,6.581,1.014,9.459,2.904c2.543,1.67,4.787,3.752,7.36,5.457
					c2.275,1.508,3.686,2.328,6.483,3.035c2.336,0.59,3.018,1.001,5.236,0.255c2.961-0.996,5.641-1.203,8.673-1.739
					c0.351-1.086,1.891-3.369,2.718-4.096c2.478-2.177,6.994,1.775,8.02-2.952c0.467-2.153,1.478-3.002,3.602-1.692
					c2.527,1.559,3.483,3.376,6.839,3.49c6.619,0.225,13.113,0.864,19.763,0.755c2.017-0.033,2.946-0.863,4.726-1.415
					c1.141-0.354,2.675-0.165,3.821-0.318c1.783-0.238,3.687-1.011,5.48-0.539c0.219,2.227,0.982,4.157,1.555,6.329
					c1.365,5.172,2.234,10.563,3.127,15.831c0.87,5.13,1.624,10.055,1.551,15.26c-0.015,1.093-0.81,5.062,0.735,5.713
					c0.221-1.591-2.328-2.626-3.375-3.254c-3.787-2.274-7.909-3.921-12.009-5.539c-7.83-3.091-15.791-4.858-24.161-5.546
					c-7.437-0.611-14.842-0.606-22.253-1.712c-8.476-1.265-16.596-3.803-25.172-4.567c-3.003-0.268-6.011-0.363-9.018-0.552
					c-11.164-0.702-22.511-4.039-33.282-6.547L579.548,223z" />
    <path style="fill:#C6E3E6;" d="M605.355,235.129c2.268,0.151,4.422,0.706,6.711,0.541c1.813-0.131,3.456-1.052,5.183-1.472
					c1.651-0.401,4.228-1.348,5.652,0.004c0.77,0.731,0.869,1.762,1.397,2.601c0.586,0.93,1.694,1.191,2.734,1.438
					c1.036,0.246,2.039,0.375,3.109,0.488c0.966,0.101,1.255,0.472,1.925,1.174c0.662,0.695,1.116,1.171,2.194,0.939
					c1.343-0.289,1.611-1.531,3.095-1.594c1.367-0.058,2.209,0.208,3.498,0.668c1.151,0.41,2.109,0.377,3.326,0.375
					c1.451-0.003,2.181,0.03,3.474,0.646c1.115,0.531,2.709,1.155,3.905,1.38c2.511,0.473,5.507-0.661,7.937,0.117
					c0.545,2.241-2.091,6.559,0.649,7.804c2.41,1.094,4.972,1.18,7.301,2.617c1.138,0.703,1.928,1.692,2.971,2.456
					c1.01,0.739,2.25,0.655,3.32,1.234c0.882,0.477,0.626,0.848,1.268,1.518c0.45,0.469,1.687,0.745,2.33,1.006
					c2.655,1.079,5.241,2.05,7.811,3.338c1.731,0.867,3.435,1.239,5.367,1.14c1.504-0.077,2.91-0.635,4.38-0.948
					c2.747-0.584,5.581-0.832,8.377-1.042c2.332-0.176,4.982,0.283,7.25-0.22c1.907-0.422,3.293-1.269,4.283-3.124
					c0.433-0.812,0.557-1.591,1.288-2.203c0.623-0.521,1.911-1.121,2.755-1.292c1.717-0.348,4.221,0.023,5.928,0.013
					c1.28-0.007,2.726-0.278,3.774,0.504c1.576,1.176,1.934,2.33,4.073,1.855c1.044-0.232,2.056-0.701,3.102-0.822
					c1.037-0.12,1.897,0.226,2.887,0.413c3.419,0.644,6.698,0.396,10.125,0.6c1.909,0.114,3.863,1.157,5.735,1.62
					c2.894,0.716,5.866,0.926,8.8,1.39c3.045,0.482,4.665,1.824,6.538,4.243c3.406,4.398,5.499,10.071,5.945,15.598
					c0.411,5.089-1.514,10.231-4.112,14.531c-0.54,0.893-1.184,2.277-2.013,2.919c-1.567,1.215-4.107,1.003-5.951,1.025
					c-9.014,0.105-17.975-3.563-26.607-5.652c-11.906-2.881-23.888-5.604-35.856-8.223c-10.046-2.199-20.244-3.481-30.242-5.943
					c-8.395-2.068-16.051-4.828-23.32-9.565c-3.083-2.009-6.197-4.48-9.593-6.029c-5.067-2.311-10.764-2.897-16.188-3.807
					L605.355,235.129z" />
    <path style="fill:#4C6287;" d="M828.15,474.85H-35.14V299.1c27.49-4.73,54.92-9.89,82.31-15.2
					c25.93-5.03,51.82-10.26,77.64-15.81c13.55-2.91,27.08-5.9,40.59-9.02c4.77-1.11,9.84-1.78,14.28-3.95
					c5.57-2.71,12.18-3.18,18.17-4.81c7.56-2.05,15.06-4.31,22.6-6.44c4.33-1.23,8.79-2.04,13.09-3.25
					c0.86-0.25,2.05-0.42,2.87-0.74c0.85-0.33,1.41-1.18,2.48-1.42c3.72-0.81,7.65-1.57,11.47-2.13c5-0.73,10.17-0.47,15.03-1.53
					c2.95-0.64,5.52-1.41,8.37-2.34c2.34-0.76,4.4-2.16,6.78-3.08c5.3-2.05,7.91-7.02,12.95-9.49c4.16-2.04,8.39-3.75,12.76-5.41
					c3.45-1.32,7.21-1.56,10.88-1.54c3.13,0.02,6.43,0.33,9.29-1.22c1.35-0.74,2.21-1.95,3.7-2.48c2.34-0.84,5.05-1.12,7.48-1.74
					c4.08-1.04,7.87-2.57,11.84-3.86c0.95-0.31,1.88-0.67,2.79-1.07c5.81-2.53,10.83-6.59,16.8-8.61c2.55-0.86,5.75-1.76,8.02-3.16
					c1.24-0.76,2.12-1.91,3.13-2.92c0.23-0.23,0.46-0.45,0.7-0.66c0.01,0,0.02-0.01,0.02-0.01c0.58-0.51,1.22-0.93,2-1.2
					c0.94-0.33,1.81-0.61,2.64-0.97h0.01c0.83-0.38,1.62-0.84,2.39-1.52c1.41-1.25,2.47-3.04,4.01-4.09
					c1.77-1.21,3.92-1.38,6.05-1.37c1.06,0,2.12,0.06,3.13,0.05c1.85-0.01,3.2-0.4,4.42-1.07c1.25-0.71,2.35-1.71,3.66-2.93
					c3-2.78,4.61-6.88,7.59-9.79c3.57-3.49,6.94-6.76,11.02-9.66c2.87-2.04,6.36-3.8,8.56-6.58c1.26-1.6,2.57-3.85,4.58-4.68
					c1.41-0.59,2.6,0,3.87,0.69c0.26,0.14,0.52,0.28,0.79,0.4c0.26,0.13,0.53,0.25,0.8,0.37c1.05,0.46,2.13,0.88,3.1,1.45
					c2.83,1.64,5.04,4.2,7.69,6.06c2.05,1.45,4.63,1.92,6.75,3.2c2.74,1.64,4.61,4.41,7.52,5.6c1.39,0.56,2.9,0.7,4.47,0.71
					c1.22,0.02,2.48-0.04,3.72-0.04c0.97,0,2.15-0.21,3.1-0.04c1.29,0.23,2.05,0.81,3.42,0.85c2.95,0.07,6.81-1.85,9.61-0.81
					c1.89,0.7,1.13,1.64,1.78,3.25c0.71,1.77,2.77,2.95,3.83,4.53c0.32,0.47,0.61,0.86,0.91,1.22c0.39,0.47,0.8,0.9,1.32,1.41
					c2.77,2.67,5.8,4.66,8.58,7.42c3.95,3.9,6.82,8.54,11.97,11c3.92,1.88,8.35,2.48,12.42,4.05c7.01,2.72,14.54,3.87,19.74,9.52
					c6.85,7.44,15.93,10.18,24.95,14.11c2.67,1.17,5.14,2.45,7.35,4.42c3.15,2.8,5.93,4.67,9.89,6.27c1.69,0.68,3.74,0.88,5.36,1.67
					c1.11,0.54,1.67,1.57,2.71,2.2c1.09,0.67,2.5,0.6,3.54,1.38c1.28,0.96,2.49,1.46,3.8,2.32c1.62,1.07,2.5,3.12,4.27,4.21
					c2.14,1.32,4.88,0.67,7.38,0.75c1.36,0.05,2.55,0.38,3.89,0.62c2.93,0.52,5.99-0.03,8.95,0.3c3.22,0.35,6.61,1.3,9.82,1.88
					c2.94,0.53,5.95,1.26,8.78,2.25c1.97,0.68,3.77,1.18,5.71,1.83c2.57,0.85,5.03,2.23,7.47,3.56c1.73,0.94,3.5,2.48,5.29,3.13
					c2.62,0.95,6.56,0.38,9.41,0.38h19.28c1.23,0,2.46,0.01,3.69,0c1.27-0.02,1.7,0.36,2.67,0.6c1.67,0.42,3.8,0.51,5.28,1.3
					c3.55,1.9,7.76,3.5,11.95,3.01c5.27-0.61,10.27,1.8,15.22,3.38c12.19,3.9,24.4,7.76,36.62,11.56
					c8.07,2.51,16.15,4.99,24.23,7.45c4.04,1.23,8.09,2.45,12.14,3.66c2.08,0.63,4.17,1.25,6.25,1.87c1.29,0.39,5.01,0.79,5.89,1.75
					c0,0,0,9.97,0,25.28C828.15,365.97,828.15,474.85,828.15,474.85z" />
    <path style="fill:#3F547C;" d="M472.88,312.69c-0.21,2.91-0.27,5.82-0.18,8.74c0.09,1.51,0.1,3.01,0.05,4.52
					c-0.97,0.69-1.98,0.35-3.02-1.01c-7.64-2.78-15.47-4.9-23.49-6.35c-20.35-3.88-41.17-6.13-61.83-7.36
					c-11.98-0.67-23.97-0.92-35.97-0.74c-7.72,0.27-15.42,0.01-23.11-0.79c-6.43-1.04-12.69-2.66-13.2-10.19
					c0.19-4.67,1.73-8.93,4.61-12.76c5.39-8.9,10.91-17.72,16.56-26.46c4.54-6.49,8.06-13.48,10.55-20.98
					c1.75-6.59,3.16-13.25,4.24-19.98c1.15-5.71,2.49-11.3,4.14-16.76c5.81-2.53,10.83-6.59,16.8-8.61
					c2.55-0.86,5.75-1.76,8.02-3.16c1.24-0.76,2.12-1.91,3.13-2.92c0.22-0.23,0.45-0.45,0.69-0.66h0.01c0.01,0,0.02-0.01,0.02-0.01
					c0.58-0.51,1.22-0.93,2-1.2c0.94-0.33,1.81-0.61,2.64-0.96v-0.01h0.01c0.83-0.38,1.62-0.84,2.39-1.52
					c1.41-1.25,2.47-3.04,4.01-4.09c1.77-1.21,3.92-1.38,6.05-1.37c0.07,0,0.14,0.01,0.22,0.01c0.99,0,1.97,0.05,2.91,0.04
					c1.85-0.01,3.2-0.4,4.42-1.07c0.31-0.18,0.62-0.37,0.91-0.59c0.15-0.1,0.3-0.21,0.45-0.33c0.45-0.34,0.9-0.73,1.36-1.15
					c0.31-0.27,0.62-0.56,0.94-0.86c3-2.78,4.61-6.88,7.59-9.79c3.57-3.49,6.94-6.76,11.02-9.66c2.87-2.04,6.36-3.8,8.56-6.58
					c1.26-1.6,2.57-3.85,4.58-4.68c1.41-0.59,2.6,0,3.87,0.69c0.26,0.14,0.52,0.28,0.79,0.4c0.26,0.13,0.53,0.25,0.8,0.37
					c0.02,1.61,0.04,3.21,0.02,4.81c-0.06,5.11-1.33,9.58-2.26,14.51c-0.41,2.18-0.5,5.19-0.09,7.34c0.22,1.14,0.69,2.18,1.33,3.11
					c0.89,1.3,2.09,2.41,3.38,3.38c0.93,0.7,1.9,1.33,2.83,1.9c3.46,2.14,6.69,3.6,8.05,7.37c0.08,0.22,0.16,0.45,0.25,0.67
					c0.96,2.54,2.16,5.12,3.49,7.45c0.04,0.06,0.07,0.13,0.11,0.19c0.07,0.12,0.14,0.23,0.21,0.35c1.05,1.75,2.3,3.43,3,5.36
					c1.39,3.87,0.68,8.98-0.05,12.92c-1.3,6.94,0.98,14.35-0.31,21.3c-0.44,1.52-0.86,3.05-1.28,4.57c-0.2,1.26-0.25,2.51-0.13,3.77
					c-0.11,1.25-0.52,1.25-0.82,2.31c-1.82,6.6,4.69,13.48,6.6,19.33c0.45,1.39,0.35,2.03,0.33,3.48c0.05,2.03,0.39,4.01,1.03,5.95
					c0.98,3.67,1.47,7.4,1.47,11.2C473.86,294.98,473.38,303.86,472.88,312.69z" />
    <g>
      <path style="fill:#3B4F75;" d="M450.26,185.84c0.01,1.88-0.24,3.74-0.75,5.48c-0.2,0.67-0.67,1.41-0.99,2.07
						c-0.5,1.06-0.35,1.67-0.65,2.83c-0.14,0.55-0.65,1.24-0.9,1.82c-0.47,1.06-0.34,1.27-0.54,2.51c-0.38,2.35-1.76,4.23-2.97,6.19
						c-1.13,1.84-1.6,3.89-2.48,5.81c-1.07,2.31-2.5,3.03-4.18,4.73c-1.44,1.44-2.84,2.78-4.37,4.15c-1.89,1.71-3.01,4.24-4.58,6.22
						c-1.36,1.7-3.13,3.18-4.5,4.81c-1.07,1.28-2.65,3.79-4.68,2.77c-1.4-0.7-1.84-2.26-3.54-1.81c-0.49,0.13-1.14,1-1.53,1.31
						c-1.22,0.98-2.68,1.97-4.01,2.83c-2.31,1.49-4.08,2.52-5.98,4.5c-4.58,4.77-10.42,8.35-15.56,12.53l-0.51,0.42
						c-2,1.69-3.94,3.69-5.68,5.79c-1.09,1.32-2.11,2.67-3.02,4.01c-3.49,5.13-7.78,9.3-11,14.64c-1.2,1.99-3.1,3.22-4.78,4.81
						c-3.11,2.93-6.6,5.77-9.33,9.06c-3.16,3.82-5.39,8.49-8.26,12.54c-1.47,2.07-0.78,2.65-1.23,4.68
						c-0.16,0.72-0.94,1.55-1.3,2.24c-0.78,1.51-0.81,1.9-2.19,2.41c-0.84,0.31-1.94,0.39-2.82,0.61
						c-4.95,1.22-9.75,2.66-14.55,4.42c-13.88,5.09-27.64,10.1-41.89,13.73c-3.3,0.85-6.62,1.62-9.98,2.3
						c-3.93,0.79-7.77,2-11.7,2.78c-3.9,0.78-7.78,0.82-11.72,1.06c-15.26,0.96-30.58,2.16-45.61,5.02
						c-9,1.71-17.95,3.63-26.94,5.35c-14.64,2.79-29.15,3.75-43.79,6.09c-9.86,1.57-19.61,4.35-29.61,4.97
						c-3.57,0.22-6.79-0.27-10.28-0.53c-4.92-0.36-9.86-0.2-14.79-0.16c-13.14,0.11-26.06-1.37-39.14-2.39
						c-13.95-1.09-27.56-1.34-41.37-3.91c-5.64-1.06-11.27-2.17-16.89-3.34c-5.34-1.12-10.09-2.45-14.81-4.1V299.1
						c27.49-4.73,54.92-9.89,82.31-15.2c25.93-5.03,51.82-10.26,77.64-15.81c13.55-2.91,27.08-5.9,40.59-9.02
						c4.77-1.11,9.84-1.78,14.28-3.95c5.57-2.71,12.18-3.18,18.17-4.81c7.56-2.05,15.06-4.31,22.6-6.44
						c4.33-1.23,8.79-2.04,13.09-3.25c0.86-0.25,2.05-0.42,2.87-0.74c0.85-0.33,1.41-1.18,2.48-1.42c3.72-0.81,7.65-1.57,11.47-2.13
						c5-0.73,10.17-0.47,15.03-1.53c2.95-0.64,5.52-1.41,8.37-2.34c2.34-0.76,4.4-2.16,6.78-3.08c5.3-2.05,7.91-7.02,12.95-9.49
						c4.16-2.04,8.39-3.75,12.76-5.41c3.45-1.32,7.21-1.56,10.88-1.54c3.13,0.02,6.43,0.33,9.29-1.22c1.35-0.74,2.21-1.95,3.7-2.48
						c2.34-0.84,5.05-1.12,7.48-1.74c4.08-1.04,7.87-2.57,11.84-3.86c7.06-2.29,12.69-7.34,19.59-9.68
						c2.55-0.86,5.75-1.76,8.02-3.16c2.19-1.35,3.27-3.89,5.85-4.79c1.89-0.65,3.5-1.12,5.04-2.49c1.41-1.25,2.47-3.04,4.01-4.09
						c2.65-1.81,6.16-1.3,9.18-1.32c3.74-0.01,5.49-1.6,8.08-4c3-2.78,4.61-6.88,7.59-9.79c3.57-3.49,6.94-6.76,11.02-9.66
						c2.87-2.04,6.36-3.8,8.56-6.58c1.26-1.6,2.57-3.85,4.58-4.68c0.81-0.34,1.55-0.29,2.28-0.04c0.06,0.01,0.12,0.03,0.18,0.06
						c0.47,0.17,0.94,0.41,1.41,0.67c0.26,0.14,0.52,0.28,0.79,0.4c-0.17,0.31-0.34,0.61-0.5,0.92c-1.28,2.35-2.52,4.72-3.79,7.08
						c-0.71,1.31-1.59,2.85-1.85,4.34c-0.21,1.17,0.07,2.3-0.23,3.46c-0.47,1.83-0.99,3.24-1.98,4.84
						c-1.22,1.95-0.94,4.09-0.95,6.38c-0.01,2.62-0.08,3.69,2.16,5.25c1.77,1.24,3.64,2.03,5.62,2.88c1.56,0.67,2.49,1.41,4.22,1.55
						c1.55,0.13,1.56-0.34,1.97,1.13C450.57,183.3,450.25,184.81,450.26,185.84z" />
      <g>
        <path style="fill:#344668;" d="M343.16,249.27c0.86-0.71,1.59-1.01,1.75-0.12C344.31,249.35,343.74,249.27,343.16,249.27z" />
        <path style="fill:#344668;" d="M424.42,160.45c-0.9,1.65-0.53,3.69-1.26,5.47c-0.24,0.6-0.39,1.18-0.49,1.76
							c-0.2,1.06-0.26,2.1-0.57,3.23c-0.01,0.08-0.04,0.17-0.06,0.25c-0.5,1.7-1.59,2.43-2.58,3.82c-1.03,1.46-1.41,3.34-2.56,4.72
							c-0.26,0.31-0.51,0.57-0.76,0.79c-0.89,0.79-1.71,1.19-2.42,2.41c-1.04,1.76-2.36,2.59-3.78,4.04
							c-1.69,1.73-3.57,2.81-5.53,4.3c-3.25,2.47-6.87,5.47-8.21,9.52c-1.08,3.25-0.63,6.54-0.89,9.86
							c-0.14,1.7-0.72,3.08-1.59,4.57c-1.63,2.78-3.49,5.34-4.55,8.39c-0.64,1.82-1.36,3.43-2.33,5.1
							c-2.43,4.19-6.12,7.26-8.58,11.35c-1.42,2.35-3.41,4.36-5.23,6.41c-0.98,1.11-2,1.95-3.27,2.67c-1.91,1.1-3.52,2.75-5.27,4.08
							c-1.5,1.15-3.14,1.96-4.8,3.1c-1.76,1.22-3.78,1.85-5.58,3.06c-2.47,1.64-4.85,4.01-7.57,5.2c1.41-1.88,2.26-3.97,3.83-5.72
							c1.78-1.99,3.52-3.94,4.9-6.24c0.67-1.12,1.35-2.2,2.08-3.27c0.97-1.4,1.53-3.06,3.06-4.06c1.58-1.03,3.44-1.63,4.9-2.69
							c2.71-1.97,3.85-5.26,6.4-7.32c1.86-1.5,3.61-2.75,4.75-4.9c1.05-1.98,1.7-4.16,2.74-6.16c1.77-3.4,3.94-6.58,5.56-10.06
							c0.94-2,2.53-4.48,2.76-6.69c-2.53,0.86-4.78,4.59-6.72,6.24c-1.89,1.61-4.02,3.41-5.47,5.45c-1.58,2.22-3.28,3.37-5.36,5.22
							c-2.43,2.17-3.04,1.12-5.63,1.69c-1.18,0.27-1.83,1.08-2.89,1.63c-2.86,1.48-5.97,2.35-8.78,4.04
							c-0.73,0.44-1.66,1.02-2.3,1.53c-0.75,0.59-1.05,1.41-1.7,2c-0.77,0.68-1.62,0.91-2.34,1.66c-0.67,0.68-0.98,1.65-1.54,2.38
							c-2.32,3.02-7.07,3.56-9.89,6.17c-1.74,1.62-4.14,3.46-6.19,4.68c-1.47,0.88-4.07,1.07-4.56,2.91
							c2.06,0.71,3.9-0.44,5.91-0.66c2.09-0.23,4.4,0.53,6.43-0.11c1.4-0.44,3.34-1.29,4.65-1.96c0.47-0.24,0.68-0.79,1.18-0.93
							c0.28-0.08,0.56-0.11,0.84-0.11c-1.38,1.14-3.08,3.37-3.28,3.54c-1.89,1.57-4.14,2.68-5.95,4.36
							c-1.39,1.29-2.6,2.69-4.11,3.85c-4.32,3.31-8.19,7-12.3,10.55c-2.46,2.12-5.17,3.84-7.69,5.86c-1.2,0.96-2.94,3.42-4.38,3.76
							c-2.5,0.61-6.24-0.14-8.64-0.9c-4.04-1.28-8.28-0.72-12.47-0.79c-4.08-0.07-7.44,1.83-11.38,2.57
							c-2.97,0.55-5.84,0.44-8.8,0.9c-8.34,1.31-16.98,2.04-25.42,1.97c-3.87-0.04-7.52,0.37-11.32,0.98
							c-1.49,0.24-4.08,1.11-5.44,0.42c0.74-0.82,2.14-0.97,3.14-1.37c1.44-0.58,2.81-1.32,4.23-1.94c3.65-1.6,7.22-3.42,10.94-4.83
							c6.55-2.49,12.91-5.88,19.73-7.39c1.32-0.29,3.06-0.25,4.26-0.74c1.1-0.45,1.95-1.41,3.26-1.8c3.91-1.17,7.42-2.99,11.23-4.33
							c2.64-0.92,2.99-3.14,5-4.75c2.73-2.2,5.35-4.21,8.54-5.96c3.68-2.01,7.3-5.95,11.43-7.06c-2.69,0.22-5.45,0.05-8.15,0.06
							c-2.64,0-4.6,0.16-7.1,0.79c-3.09,0.78-6.19,0.43-9.32,0.7c-2.65,0.23-5.01,1.8-7.61,2.26c-1.8,0.32-3.59-0.07-5.38,0.17
							c1.01-0.33,1.77-1.05,2.65-1.59c1.6-0.97,3.39-1.5,4.95-2.52c1.81-1.19,3.48-2.47,5.36-3.49c1.62-0.88,3.28-1.15,5.02-1.71
							c1.13-0.37,2.26-1.17,3.38-1.45c0.86-0.21,1.65,0.08,2.46-0.09c3.97-0.86,5.86-4.49,8.87-6.7c1.9-1.4,3.57-2.59,5.1-4.41
							c1.06-1.27,1.86-2.6,3.41-3.28c2.2-0.98,5.16-1.17,7.52-1.91c2.95-0.92,5.71-1.44,8.56-2.53c3-1.16,6.71-0.51,9.9-0.57
							c4.82-0.08,9.84-1.2,14.63-1.9c4.23-0.61,8.33-2.11,12.49-3.1c2.64-0.63,5.29-1.32,7.71-2.57
							c6.28-3.27,11.72-8.01,16.88-12.77c1.74-1.6,3.49-3.1,5.19-4.82c3.07-3.12,6.88-5.22,10.1-8.11c1.46-1.3,2.44-3.01,3.84-4.33
							c0.44-0.41,1.12-0.71,1.69-1.08c0.59-0.38,1.05-0.83,1.01-1.57l16.26-20.13C423.63,159.77,424.05,160.08,424.42,160.45z" />
        <path style="fill:#344668;" d="M374.96,265.15c2.46-1.4,4.78-2.75,6.9-4.35c-1.09,1.32-2.11,2.67-3.02,4.01
							c-3.49,5.13-7.78,9.3-11,14.64c-1.2,1.99-3.1,3.22-4.78,4.81c-3.11,2.93-6.6,5.77-9.33,9.06c-3.16,3.82-5.39,8.49-8.26,12.54
							c-1.47,2.07-0.78,2.65-1.23,4.68c-0.16,0.72-0.94,1.55-1.3,2.24c-0.78,1.51-0.81,1.9-2.19,2.41
							c-0.84,0.31-1.94,0.39-2.82,0.61c-4.95,1.22-9.75,2.66-14.55,4.42c-13.88,5.09-27.64,10.1-41.89,13.73
							c-3.05-0.33-6.08-0.79-9.11-1.25c-0.88-0.14-1.8-0.09-2.56-0.61c4.19-4.32,9.52-7.31,14.56-10.52
							c7.9-5.04,15.68-9.92,23-15.77c5.13-4.09,9.79-8.71,15-12.69c4.78-3.66,9.99-6.51,14.64-10.37
							c7.91-6.57,17.53-10.17,26.89-14.17c3.36-1.44,4.72-1.82,7.78-2.26C372.98,266.12,373.7,265.87,374.96,265.15z" />
        <path style="fill:#344668;" d="M450.26,185.84c0.01,1.88-0.24,3.74-0.75,5.48c-0.2,0.67-0.67,1.41-0.99,2.07
							c-0.5,1.06-0.35,1.67-0.65,2.83c-0.14,0.55-0.65,1.24-0.9,1.82c-0.47,1.06-0.34,1.27-0.54,2.51
							c-0.38,2.35-1.76,4.23-2.97,6.19c-1.13,1.84-1.6,3.89-2.48,5.81c-1.07,2.31-2.5,3.03-4.18,4.73
							c-1.44,1.44-2.84,2.78-4.37,4.15c-1.89,1.71-3.01,4.24-4.58,6.22c-1.36,1.7-3.13,3.18-4.5,4.81
							c-1.07,1.28-2.65,3.79-4.68,2.77c-1.4-0.7-1.84-2.26-3.54-1.81c-0.49,0.13-1.14,1-1.53,1.31c-1.22,0.98-2.68,1.97-4.01,2.83
							c-2.31,1.49-4.08,2.52-5.98,4.5c-4.58,4.77-10.42,8.35-15.56,12.53l-0.51,0.42c4.34-5.86,8.72-11.85,13.59-17.26
							c1.01-1.12,2.12-2.49,3.4-3.33c1.67-1.1,3.78-1.07,5.49-2.07c3.21-1.89,6.02-6.24,7.55-9.56c2-4.35,4.95-8.33,7.88-12.16
							c2.46-3.22,5.42-6.05,7.95-9.25c2.19-2.79,5.23-6.04,6.57-9.34c-1.11,0.23-1.74,1.28-2.62,1.98
							c-2.05,1.61-4.76,2.38-6.95,3.86c-4.72,3.21-8.06,7.31-12.01,11.31c0.72-0.87,0.75-1.77,1.32-2.81
							c0.75-1.37,2.25-2.34,2.65-3.93c0.24-0.98-0.04-2.11,0-3.12c0.07-1.57,0.57-3.08,1.19-4.53c0.94-2.2,0.95-4.02,1.55-6.25
							c0.38-1.44,0.39-2.64,0.38-4.19c0-0.85,0.37-2.73-0.03-3.49c-0.5-0.96-2.21-0.75-2.4-1.96c-0.16-0.97,1.49-2.29,1.89-3.14
							c0.25-0.52,0.4-1.02,0.56-1.51c0.18-0.53,0.37-1.04,0.7-1.56c0.7-1.12,1.75-2,2.38-3.1c4.92-8.54,10.22-17.26,14.66-26.24
							c0.02-0.03,0.03-0.07,0.05-0.1l0.13,0.16l1.7,1.99c-1.28,2.35-2.52,4.72-3.79,7.08c-0.71,1.31-1.59,2.85-1.85,4.34
							c-0.21,1.17,0.07,2.3-0.23,3.46c-0.47,1.83-0.99,3.24-1.98,4.84c-1.05,1.67-0.99,3.49-0.96,5.42
							c0.01,0.32,0.01,0.64,0.01,0.96c0,1.18-0.02,2.04,0.17,2.78c0.22,0.9,0.75,1.61,1.99,2.47c0.79,0.55,1.6,1.02,2.43,1.44
							c1.03,0.52,2.09,0.97,3.19,1.44c1.56,0.67,2.49,1.41,4.22,1.55c1.55,0.13,1.56-0.34,1.97,1.13
							C450.57,183.3,450.25,184.81,450.26,185.84z" />
        <path style="fill:#344668;" d="M281.484,230.742c-4.086,0.576-5.767,0.339-8.512,2.887c-1.06,0.984-2.562,1.683-3.807,2.305
							c-4.836,2.415-9.222,5.534-14.061,7.985c-4.228,2.141-8.085,4.797-12.4,6.796c-2.48,1.149-4.497,2.64-6.897,3.831
							c-2.263,1.122-4.761,1.514-6.986,2.714c-3.309,1.785-6.72,3.517-10.24,5.056c-3.753,1.64-6.379,3.289-9.079,6.348
							c-2.9,3.284-5.42,6.983-8.534,10.077c-1.831,1.819-3.718,4.145-6.154,4.648c-2.922,0.603-5.605,1.015-8.516,2.108
							c-2.754,1.034-5.601,1.252-8.366,2.305c-4.088,1.557-7.566,4.354-11.395,6.408c-4.275,2.294-8.564,3.983-12.964,5.999
							c-3.192,1.462-6.199,2.778-8.949,4.855c-2.126,1.605-4.441,3.292-6.212,5.459c-1.769,2.166-4.371,2.77-7.071,3.077
							c-5.858,0.667-12.24-0.018-18.144-0.018c-5.159,0-10.319-0.015-15.478,0.018c-5.173,0.033-10.433-0.766-15.567-1.391
							c-1.997-0.243-3.898-0.207-5.888-0.175c-3.063,0.049-5.844-0.662-8.854-0.796c-3.136-0.14-6.049-0.65-9.187-0.73
							c-4.562-0.116-9.106-1.122-13.644-1.571c-4.293-0.425-8.23-0.752-12.567-0.771c-8.295-0.036-16.444,1.496-24.689,2.32
							c-3.036,0.303-5.593,0.777-8.676,0.774c-1.925-0.002-3.869-0.077-5.789,0.055c2.619-1.247,5.696-1.823,8.427-2.712
							c5.506-1.793,10.996-3.633,16.512-5.395c7.383-2.359,14.549-5.298,21.928-7.66c8.818-2.823,17.814-5.109,26.622-7.963
							c8.057-2.611,16.531-4.392,24.925-5.587c4.489-0.639,9.37-0.157,13.908-0.157c4.895,0,9.608,0.161,14.438-0.774
							c4.123-0.798,8.003-0.774,12.182-0.774c3.665,0,7.988,0.554,11.584-0.172c4.525-0.914,9.68-0.315,14.09-1.92
							c2.839-1.033,4.753-3.526,6.785-5.621c1.204-1.241,2.36-2.369,3.436-3.722c1.008-1.269,1.906-2.321,3.466-2.923
							c2.218-0.855,5.168-0.356,7.527-0.352c1.572,0.003,3.292,0.259,4.829-0.067c1.081-0.23,1.984-0.932,2.913-1.288
							c0.845-0.324,1.803-0.397,2.568-0.929c0.978-0.68,1.201-1.859,2.263-2.331c2.256-1.001,3.768,0.943,5.514,1.46
							c1.616,0.478,4.244,0.166,5.969,0.116c2.465-0.071,4.771-0.948,7.112-1.628c1.287-0.374,3.216-0.524,4.113-1.681
							c1.195-1.542,1.081-3.97,2.455-5.585c1.377-1.619,4.869-1.852,6.841-2.003c1.269-0.097,1.718-0.342,2.841-0.863
							c0.49-0.227,1.126-0.23,1.535-0.656c0.399-0.415,0.204-1.021,0.552-1.405c0.945-1.041,4.687-3.139,6.064-3.269
							L281.484,230.742z" />
      </g>
    </g>
    <path style="fill:#3F547C;" d="M417.92,209.67c0.16-0.16,0.32-0.32,0.47-0.48C418.26,209.35,418.11,209.51,417.92,209.67z" />
    <path style="fill:#344668;" d="M399.935,301.194c-0.491-3.369,1.679-7.274,2.851-10.282c1.543-3.961,3.157-6.76,5.757-9.948
					c1.577-1.933,3.16-2.829,5.152-4.375c1.265-0.982,1.922-1.209,2.667-2.589c0.834-1.545,1.992-3.568,2.208-5.326
					c0.244-1.981-0.222-4.009,0.102-6.021c0.418-2.596,1.37-4.811,2.545-7.145c2.3-4.566,5.382-8.637,7.815-13.13
					c1.671-3.085,3.264-5.961,5.288-8.891c4.136-5.988,7.31-12.478,11.172-18.665c0.955,2.596-0.568,5.686-1.431,8.098
					c-1.348,3.765-1.782,7.813-2.514,11.73c-0.581,3.11-1.472,6.226-2.321,9.274c-0.688,2.468-1.171,5.481-2.321,7.792
					c-0.518,1.041-1.227,1.713-1.562,2.839c-0.116,0.389-0.553,0.3-0.512,0.884c0.061,0.875,1.671,2.143,2.201,2.81
					c2.164,2.723,1.765,6.135,1.573,9.473c1.086-2.943,1.004-6.138,1.945-9.166c0.64-2.059,1.509-4.12,1.831-6.262
					c0.148-0.984-0.229-2.947,0.716-3.551c1.758,4.628,1.903,10.332,2.448,15.219c0.251,2.252-0.146,4.527,0.134,6.776
					c0.28,2.244,0.962,4.139,0.745,6.464c-0.476,5.1-1.646,10.154-2.206,15.287c-0.345,3.164-0.159,6.373-0.156,9.55
					c0.002,1.452,0.772,6.218-0.563,6.904c-1.605-2.368-2.573-5.283-4.04-7.767c-1.45-2.455-4.399-5.588-6.464-7.583
					c-1.112-1.075-2.309-0.958-3.619-1.67c-1.375-0.746-3.031-2.893-4.667-0.792L399.935,301.194z" />
    <g>
      <path style="fill:#3F547C;" d="M452.665,154.88c-0.386,2.006,1.825,4.503,3.511,6.338
						C455.457,158.74,454.723,155.334,452.665,154.88z" />
      <path style="fill:#3B4F75;" d="M645.31,313.44c-1.39,0.9-4.98-0.94-6.21-1.41c-1.51-0.57-2.95-1.22-4.49-1.72
						c-6.41-2.1-12.31-5.5-18.76-7.39c-3.53-1.03-7.15-2.13-10.78-2.75c-2.94-0.5-5.96-0.52-8.89-1.1
						c-2.42-0.49-5.14-0.87-7.36-1.94c-2.67-1.29-4.79-3.25-7.3-4.77c-2.06-1.25-4.35-1.87-6.58-2.75c-2.38-0.94-4.31-2.1-6.87-2.39
						c-2.45-0.28-4.73-1.11-7.17-1.53c-2.33-0.4-4.62-0.86-6.88-1.36c-2.01-0.44-4-0.43-6.04-0.9c-2.06-0.47-4.15-1.57-6.3-1.62
						c-0.11-6.81,3.37-13.38,4.46-19.98c0.38-2.31,0.1-4.73,0.12-7.07c0-1.76,0.3-3.72-0.12-5.46c-1.19-4.87-4.32-8.46-8.56-10.81
						c-3.58-1.99-7.41-3.26-10.9-5.44c-2.55-1.6-4.89-3.48-7.29-5.35c0.42,1.83,1.16,3.91,1.85,5.38s1.94,2.47,2.45,4.07
						c0.32,0.97,0.51,2.12,0.71,3.13c0.43,2.15,0.46,4.65,1.05,6.71c0.35,1.21,1.42,2.09,2.02,3.15c1.13,1.94,1.29,3.84,1.63,5.97
						c0.17,1.08,0.51,2.2,0.8,3.25c0.29,1.03,0.6,1.25,1.09,2.14c1.1,2.02,0.56,5.17,0.56,7.56c0,2.89,0.99,18.63-0.6,18.91
						c-0.82-2.34-0.21-5.08-1.15-7.57c-0.9-2.4-2.15-4.43-2.89-6.9c-0.56-1.83-0.81-3.25-0.78-5.21c0.01-0.86,0.15-1.72-0.16-2.54
						c-0.21-0.58-1-1-1.24-1.7c-0.27-0.83,0.08-1.54-0.09-2.32c-0.36-1.68-1.08-1.95-2.19-3.1c-1.37-1.42-2.65-3.15-4.04-4.66
						c-1.71-1.86-3.27-3.36-4.67-5.44c-1.16-1.75-2.97-3.62-2.97-5.88c0-4.52,3.61-8.69,2.63-13.45c-0.37-1.81-0.22-3.62-0.61-5.41
						c-0.45-2.07-1.23-3.96-2.23-5.86c-2.05-3.88-3.3-8.57-4.56-12.74l0.43,0.2c-0.93-1.63-1.77-3.3-2.9-4.8
						c-2.47-3.25-3.91-7.49-7-10.18c-3.1-2.7-6.86-4.25-10.52-5.97c-2.11-0.99-3.54-1.74-3.18-4.4c0.32-2.31,1.62-3.68-0.84-5.19
						c-3.17-1.95-7.43-2.1-10.95-2.94c-2.48-0.6-4.94-1.39-7.31-2.33c-0.6-0.24-1.19-0.54-1.75-0.89c-0.01-0.01-0.02-0.01-0.03-0.02
						c-2.2-1.34-4.04-3.41-5.15-5.68c-0.23-0.46-0.42-1.08-0.62-1.77c0.48,0.52,0.92,0.99,1.24,1.38c1.04,1.26,1.35,1.91,2.91,2.57
						c1.33,0.56,2.54,1.34,3.94,1.74c1.14,0.33,2.42,0.04,3.47,0.33c0.62,0.17,0.96,0.49,1.52,0.7c0.28,0.1,0.57,0.2,0.87,0.3
						c1.8,0.58,3.93,1.09,5.68,1.34l2.32-3.87c2.45,3.26,7.38,3.35,10.54,5.75c1.15,0.87,2.33,1.9,3.39,2.75
						c2.87,2.27,0.91,5.31,0.78,8.48c-0.1,2.5,3.06,5.24,5.42,6.07c1.07,0.38,2.24,0.46,3.25,1.05c1.7,0.99,3.06,2.81,4.43,4.19
						c2.44,2.44,3.29,4.82,5.03,7.67c1.17,1.94,2.77,3.44,4.32,5.05c1.68,1.75,3,3.77,4.69,5.5c1.81,1.87,3.21,3.99,5.05,5.82
						c2.02,2,3.99,4.07,6.03,6.06c2.04,1.97,4.3,3.75,6.86,5c2.65,1.3,5.79,1.58,8.41,2.83c2.22,1.05,3.82,1.77,6.44,2.08
						c2.99,0.36,6.03,1.53,8.61,2.99c2.18,1.23,1.61,2.7,2.03,4.85c0.43,2.22,1.9,4.11,2.56,6.22c0.34,1.07,0.44,2.09,0.77,3.17
						c0.58,1.88,2.36,4.46,3.64,5.98c3.51,4.18,9,6.15,12.31,10.49c0.42,0.55,0.67,1.2,1.11,1.75c1.65,2.09,4.43,3.37,6.61,4.85
						c3.09,2.09,5.92,4.55,9.05,6.56c2.92,1.87,5.86,3.73,8.71,5.69c2.62,1.79,5.04,4.04,8.14,4.95c0.89,0.27,1.81,0.21,2.69,0.47
						c0.84,0.24,1.28,0.92,2.17,1.28c1.05,0.43,2.52,0.36,3.62,0.65c1.43,0.39,2.4,0.92,3.6,1.69c4.07,2.62,7.58,6.04,12.11,7.95
						c-1.27,0.64,0.46,1.71,0.99,2.29c0.96,1.06,1.16,1.44,1.64,2.71c0.34,0.87,0.5,1.87,0.85,2.73
						C644.32,312.13,645.05,312.65,645.31,313.44z" />
      <path style="fill:#344668;" d="M516.105,289.216c-0.16-2.679-0.952-5.381-1.416-7.979c-0.462-2.586-0.172-5.432-0.172-8.071
						c0-1.992,0.957-7.271-0.157-8.974c-0.556-0.85-1.969-1.328-2.844-1.693c-1.934-0.806-3.686-1.132-5.403-2.556
						c-0.867-0.719-1.673-1.531-2.549-2.258c-3.588-2.978-7.419-5.113-10.429-8.89c-1.417-1.778-2.762-3.384-2.633-5.652
						c0.071-1.245,0.507-2.247,0.723-3.462c0.284-1.597,0.046-3.315,0.063-4.937c0.041-3.784-0.913-9.399-3.23-12.467
						c-1.136-1.504-2.391-2.331-2.865-4.268c-0.489-1.998-0.103-4.377-0.098-6.426c0.004-1.557,0.304-3.55-0.132-5.089
						c-0.33-1.165-1.215-2.291-1.644-3.47c-0.347-0.954-0.249-2.178-0.64-3.024c-0.48-1.035-2.091-2.268-2.758-3.218
						c-1.608-2.291-3.057-4.684-4.713-6.944c-1.998-2.728-3.75-4.631-4.82-7.872c-0.214,0.044-0.428,0.088-0.642,0.132
						c-0.546,1.655-0.077,3.451,0.613,4.967c1.094,2.406,1.617,4.645,2.546,7.115c0.898,2.389,1.212,5.222,2.42,7.422
						c0.926,1.686,2.14,3.32,3.197,4.965c0.916,1.424,2.933,2.944,3.419,4.496c0.449,1.434,0.06,3.584,0.06,5.102
						c0,4.342,0.002,8.683,0,13.025c-0.001,1.617,0.36,3.576-0.358,5.061c-0.698,1.443-1.716,2.526-2.004,4.229
						c-0.276,1.63,0.325,3.407-0.026,5.032c-0.36,1.668-1.3,3.338-1.537,5.032c-0.298,2.129,2.177,3.271,3.18,4.871
						c0.795,1.268,1.56,2.599,2.674,3.645c1.171,1.099,2.739,1.929,3.82,3.097c0.709,0.766,2.298,2.563,2.708,3.529
						c1.132,2.662-0.94,7.497-1.914,9.941c-2.056,5.158-4.193,10.09-5.94,15.366c-1.276,3.853-2.79,7.757-4.492,11.424
						c-0.918,1.978-0.959,4.116-1.721,6.115c-0.352,0.924-1.068,1.514-1.357,2.4l39.484-6.968c0.081,2.222,0.558,4.336,1.431,6.342
						c0.839-2.851,0.117-6.626,0.117-9.627C516.065,295.559,516.291,292.33,516.105,289.216z" />
      <path style="fill:#3F547C;" d="M534.297,262.663c0.086,0.102,0.174,0.196,0.258,0.303
						C534.503,262.844,534.412,262.746,534.297,262.663z" />
    </g>
    <path style="fill:#677F9C;" d="M828.14,290.1c0,0,0,9.97,0,25.28c-13.82-2.69-27.48-6.06-40.97-10.1
					c-7.69-2.68-15.39-5.32-23.12-7.9c-4.73-1.42-10.11-2.19-14.74-4c-3.31-1.3-5.43-3.91-8.03-6.16c-2.34-2.02-4.71-3.84-7.82-4.47
					c-3.62-0.74-6.61-1.07-9.85-3.06c-1.6-0.99-3.16-2.52-4.85-3.33c-2.15-1.03-4.44-0.81-6.79-0.75c-4.82,0.13-9.45,0.93-14.3,0.85
					c-8.89-0.15-17.86-1-26.67-2.16c-2.34-0.3-4.47-0.62-6.52-1.91c-2.95-1.85-5.88-2.91-9-4.49c-7.18-3.65-14.18-7.91-20.93-12.28
					c-2.53-1.64-5.5-3.09-8.24-4.75c1.22,0.86,2.41,1.74,3.47,2.69c1.97,1.77,3.09,4.11,5.13,5.89c5.42,4.73,10.91,9.39,16.58,13.81
					c2.76,2.15,5.95,3.81,8.41,6.36c3.04,3.15,5.01,7.45,7.7,10.9c-2.18-0.85-3.9-2.54-5.92-3.71c-2.07-1.2-4.34-1.48-6.61-2.26
					c-2.26-0.79-4.55-1.57-6.66-2.73c-2.17-1.18-4.24-3.4-6.59-3.92c-0.92-0.2-1.21,0.02-2.06-0.46c-1.4-0.8-2-2.33-3.02-3.52
					c-3.26-3.8-8.77-5.64-12.87-8.36c-3.66-2.44-7.51-3.85-11.39-5.75c-2.75-1.34-6.03-2.95-9.05-3.44
					c-1.73-0.29-3.47-0.01-5.2-0.06c-1.82-0.06-2.58-0.84-4.16-1.77c-1.48-0.86-2.47-1.02-2.95-2.48c-0.35-1.04-0.28-2.32-0.72-3.49
					c-0.52-1.4-1.05-2.61-1.85-3.82c-1.63-2.45-3.69-4.55-5.81-6.62c-2.23-2.16-4.93-3.48-7.31-5.43c-2.73-2.25-4.9-4.52-8.05-6.32
					c-3.64-2.08-8.31-3.25-11.07-6.42c-1.28-1.47-2.15-1.89-3.74-3c-0.45-0.31-0.84-0.77-1.23-1.04c-3.15-2.21-7-2.78-10.71-3.5
					c-3.8-0.73-7.63-1.32-11.42-2.08c-0.6-0.12-1.46-0.17-2.02-0.42c-1-0.44-1.2-0.77-1.95-1.73c-2.88-3.68-4.83-7.16-6.49-11.55
					c-0.9-2.35-1.16-4.31-2.79-6.23c-1.43-1.68-3.03-3.48-4.59-5.03c-1.46-1.45-3.07-2.89-4.81-4.02c-2.91-1.89-5.83-4.19-8.62-6.53
					c-2.26-1.89-5.07-3.14-7.06-5.29c-0.86-0.94-1.35-2.09-2.08-3.07c-1.29-1.71-3.02-1.92-4.95-2.46
					c-2.32-0.65-4.59-1.26-6.94-1.86c-0.32-0.08-0.64-0.17-0.96-0.27c1.22,0.02,2.48-0.04,3.72-0.04c0.97,0,2.15-0.21,3.1-0.04
					c1.29,0.23,2.05,0.81,3.42,0.85c2.95,0.07,6.81-1.85,9.61-0.81c1.89,0.7,1.13,1.64,1.78,3.25c0.71,1.77,2.77,2.95,3.83,4.53
					c0.74,1.09,1.31,1.73,2.23,2.63c2.77,2.67,5.8,4.66,8.58,7.42c3.95,3.9,6.82,8.54,11.97,11c3.92,1.88,8.35,2.48,12.42,4.05
					c7.01,2.72,14.54,3.87,19.74,9.52c6.85,7.44,15.93,10.18,24.95,14.11c2.67,1.17,5.14,2.45,7.35,4.42
					c3.15,2.8,5.93,4.67,9.89,6.27c1.69,0.68,3.74,0.88,5.36,1.67c1.11,0.54,1.67,1.57,2.71,2.2c1.09,0.67,2.5,0.6,3.54,1.38
					c1.28,0.96,2.49,1.46,3.8,2.32c1.62,1.07,2.5,3.12,4.27,4.21c2.14,1.32,4.88,0.67,7.38,0.75c1.36,0.05,2.55,0.38,3.89,0.62
					c2.93,0.52,5.99-0.03,8.95,0.3c3.22,0.35,6.61,1.3,9.82,1.88c2.94,0.53,5.95,1.26,8.78,2.25c1.97,0.68,3.77,1.18,5.71,1.83
					c2.57,0.85,5.03,2.23,7.47,3.56c1.73,0.94,3.5,2.48,5.29,3.13c2.62,0.95,6.56,0.38,9.41,0.38h19.28c1.23,0,2.46,0.01,3.69,0
					c1.27-0.02,1.7,0.36,2.67,0.6c1.67,0.42,3.8,0.51,5.28,1.3c3.55,1.9,7.76,3.5,11.95,3.01c5.27-0.61,10.27,1.8,15.22,3.38
					c12.19,3.9,24.4,7.76,36.62,11.56c8.07,2.51,16.15,4.99,24.23,7.45c4.04,1.23,8.09,2.45,12.14,3.66
					c2.08,0.63,4.17,1.25,6.25,1.87C823.54,288.74,827.26,289.14,828.14,290.1z" />
  </g>
</svg>